<svg class="w-full"
    xmlns="http://www.w3.org/2000/svg" fill="none" viewBox="72 0 28 42">
    <path fill="url(#a)" fill-rule="evenodd" d="M74.4533 20.3289H72V0l27.7786.187676-4.7952 8.792804H80.6808c-.2019 0-.3963.07995-.5397.22202-.1415.14207-.2227.33481-.2227.53581v3.12519c0 .4146.3378.7507.7549.7507h11.6681l-3.5855 6.7147H80.611c-.1774 0-.3491.0707-.4756.1967-.1264.1259-.1981.2965-.1981.4744 0 .6122.0019 1.5119.0019 2.1237 0 .3699.3019.6699.6756.6699h6.2539L76.8669 42l.1434-11.1506-2.5061 3.5522-.0509-14.0727Z" clip-rule="evenodd"></path>
    <path fill="#fff" fill-rule="evenodd" d="M72 20.3291V0h28l-5.0317 8.98067H81.0299v4.63353h5.752l-9.8206 19.9344V20.3291H72Z" clip-rule="evenodd"></path>
    <defs>
        <linearGradient id="a" x1="76.8669" x2="92.21" y1="41.9981" y2="13.5424" gradientUnits="userSpaceOnUse">
            <stop stop-color="#00DFFF"></stop>
            <stop offset="1" stop-color="#096EEB"></stop>
        </linearGradient>
    </defs>
</svg>